<svg width="32" height="32" viewBox="0 0 32 32" fill="none" xmlns="http://www.w3.org/2000/svg">
  <!-- Brain/Circuit AI Icon -->
  <defs>
    <linearGradient id="brainGradient" x1="0%" y1="0%" x2="100%" y2="100%">
      <stop offset="0%" style="stop-color:#3B82F6;stop-opacity:1" />
      <stop offset="100%" style="stop-color:#1E40AF;stop-opacity:1" />
    </linearGradient>
  </defs>
  
  <!-- Brain outline -->
  <path d="M16 4C12 4 8 6 6 10C6 14 8 16 10 18C8 20 6 22 6 26C6 28 8 30 10 30C12 30 14 28 16 26C18 28 20 30 22 30C24 30 26 28 26 26C26 22 24 20 22 18C24 16 26 14 26 10C26 6 24 4 20 4C18 4 16 4 16 4Z" fill="url(#brainGradient)" stroke="#1E40AF" stroke-width="1"/>
  
  <!-- Circuit lines -->
  <path d="M26 10L30 10M26 14L30 14M26 18L30 18" stroke="#1E40AF" stroke-width="1.5" stroke-linecap="round"/>
  <path d="M6 10L2 10M6 14L2 14M6 18L2 18" stroke="#1E40AF" stroke-width="1.5" stroke-linecap="round"/>
  
  <!-- Neural nodes -->
  <circle cx="12" cy="12" r="1" fill="#1E40AF"/>
  <circle cx="20" cy="12" r="1" fill="#1E40AF"/>
  <circle cx="14" cy="16" r="1" fill="#1E40AF"/>
  <circle cx="18" cy="16" r="1" fill="#1E40AF"/>
  <circle cx="12" cy="20" r="1" fill="#1E40AF"/>
  <circle cx="20" cy="20" r="1" fill="#1E40AF"/>
  
  <!-- AI text -->
  <text x="16" y="28" text-anchor="middle" font-family="Arial, sans-serif" font-size="6" font-weight="bold" fill="#1E40AF">AI</text>
</svg>
